/* XPM */
static char *result[] = {
/* columns rows colors chars-per-pixel */
"51 51 98 2 ",
"   c black",
".  c #0D0C0A",
"X  c #1C1B16",
"o  c #26241E",
"O  c #2E2C25",
"+  c #322F28",
"@  c #454237",
"#  c #4B473C",
"$  c #565245",
"%  c #605B4D",
"&  c #666152",
"*  c #686353",
"=  c #6A6555",
"-  c #6E6858",
";  c #7D7764",
":  c #827B68",
">  c #867F6B",
",  c #948C76",
"<  c #958D77",
"1  c #9B937C",
"2  c #9C947D",
"3  c #D5B657",
"4  c #D6B656",
"5  c #D7B756",
"6  c #D7B657",
"7  c #D7B757",
"8  c #D7B857",
"9  c #D7B758",
"0  c #D7B759",
"q  c #D8B759",
"w  c #D7B859",
"e  c #D7B85A",
"r  c #D7B95A",
"t  c #D8B859",
"y  c #D8B85A",
"u  c #D8B95A",
"i  c #D8B85B",
"p  c #D8BA5D",
"a  c #D8BA5E",
"s  c #D9BA5E",
"d  c #D8BA5F",
"f  c #D9BB5F",
"g  c #DABC5F",
"h  c #D9BB60",
"j  c #DABC63",
"k  c #DBBC63",
"l  c #DEC16C",
"z  c #DEC16D",
"x  c #DFC26F",
"c  c #DFC36F",
"v  c #E0C574",
"b  c #E0C674",
"n  c #E1C674",
"m  c #E1C675",
"M  c #B0A78D",
"N  c #C5BB9E",
"B  c #E5CC82",
"V  c #E5CD83",
"C  c #E6CD83",
"Z  c #EAD38E",
"A  c #EAD38F",
"S  c #EED99B",
"D  c #EED99C",
"F  c #CBC1A2",
"G  c #CDC3A4",
"H  c #D5CAAA",
"J  c #D6CBAB",
"K  c #DACFAE",
"L  c #DED3B2",
"P  c #F0DDA2",
"I  c #F1DDA2",
"U  c #F1DDA3",
"Y  c #F1DEA5",
"T  c #E3D7B6",
"R  c #E8DCBA",
"E  c #EBDFBC",
"W  c #EDE1BE",
"Q  c #F6E5B3",
"!  c #F6E6B3",
"~  c #F7E6B4",
"^  c #F7E7B6",
"/  c #F8E8B8",
"(  c #F8E8B9",
")  c #F0E4C0",
"_  c #F3E7C2",
"`  c #F4E8C3",
"'  c #FBEDC2",
"]  c #FCEDC2",
"[  c #FCEDC3",
"{  c #FDEFC7",
"}  c #FAEDC8",
"|  c #FBEEC9",
" . c #FDF0C7",
".. c #FEF1C9",
"X. c #FEF1CA",
"o. c #FEF1CB",
"O. c #FFF2CC",
"+. c None",
/* pixels */
"+.+.+.+.+.+.+.+.+.+.+.+.+.+.+.+.+.+.+.+.9 f s e 6 4 6 e s f 9 +.+.+.+.+.+.+.+.+.+.+.+.+.+.+.+.+.+.+.+.",
"+.+.+.+.+.+.+.+.+.+.+.+.+.+.+.+.+.f 4 x Z Y ^ ' ..O...' ^ Y Z c 4 f +.+.+.+.+.+.+.+.+.+.+.+.+.+.+.+.+.",
"+.+.+.+.+.+.+.+.+.+.+.+.+.+.3 e b P { O.O.O.O.O.O.O.O.O.O.O.O.O.{ P b e 9 +.+.+.+.+.+.+.+.+.+.+.+.+.+.",
"+.+.+.+.+.+.+.+.+.+.+.+.+.q C / O.O.O.O.O.O.O.O.O.O.O.O.O.O.O.O.O.O.O./ B 0 +.+.+.+.+.+.+.+.+.+.+.+.+.",
"+.+.+.+.+.+.+.+.+.+.+.d b ^ O.O.O.O.O.O.O.O.O.O.O.O.O.O.O.O.O.O.O.O.O.O.O.^ v f +.+.+.+.+.+.+.+.+.+.+.",
"+.+.+.+.+.+.+.+.+.+.4 S O.O.O.O.O.O.O.O.O.O.O.O.O.O.O.O.O.O.O.O.O.O.O.O.O.O.O.S 4 +.+.+.+.+.+.+.+.+.+.",
"+.+.+.+.+.+.+.+.3 k ! O.O.O.O.O.O.O.O.O.O.O.O.O.O.O.O.O.O.O.O.O.O.O.O.O.O.O.O.O.Q k 5 +.+.+.+.+.+.+.+.",
"+.+.+.+.+.+.+.i z ] O.O.O.O.O.O.O.O.O.O.O.O.O.O.O.O.O.O.O.O.O.O.O.O.O.O.O.O.O.O.O.' l t +.+.+.+.+.+.+.",
"+.+.+.+.+.+.3 z { O.O.O.O.O.O.O.O.O.O.O.O.O.O.O.O.O.O.O.O.O.O.O.O.O.O.O.O.O.O.O.O.O.{ l 5 +.+.+.+.+.+.",
"+.+.+.+.+.+.k ] O.O.O.O.O.O.O.O.O.O.O.O.O.O.O.O.O.O.O.O.O.O.O.O.O.O.O.O.O.O.O.O.O.O.O.' k +.+.+.+.+.+.",
"+.+.+.+.+.4 ~ O.O.O.O.O.O.O.O.O.O.O.O.O.O.O.O.O.O.O.O.O.O.O.O.O.O.O.O.O.O.O.O.O.O.O.O.O.Q 4 +.+.+.+.+.",
"+.+.+.+.f S O.O.O.O.O.O.O.O.O.O.O.O.O.O.O.O.O.O.O.O.O.O.O.O.O.O.O.O.O.O.O.O.O.O.O.O.O.O.O.S f +.+.+.+.",
"+.+.+.+.b O.O.O.O.O.O.O.O.O.O.O.O.O.O.O.O.O.O.O.O.O.O.O.O.O.O.O.O.O.O.O.O.O.O.O.O.O.O.O.O.O.v +.+.+.+.",
"+.+.+.q ^ O.O.O.O.O.O.O.O.O.O.O.O.O.O.O.O.O.O.O.O.O.O.O.O.O.O.O.O.O.O.O.O.O.O.O.O.O.O.O.O.O.^ q +.+.+.",
"+.+.6 V O.O.O.O.O.O.O.O.O.O.O.O.O.O.O.O.O.O.O.O.O.O.O.O.O.O.O.O.O.O.O.O.O.O.O.O.O.O.O.O.O.O.O.B 9 +.+.",
"+.+.u ( O.O.O.O.O.O.O.O.O.O.O.O.O.O.O.O.O.O.O.O.O.O.O.O.O.O.O.O.O.O.O.O.O.O.O.O.O.O.O.O.O.O.O./ e +.+.",
"+.+.b O.O.O.O.O.O.O.O.O.O.O.O.O.O.O.O.O.O.O.O.O.O.O.O.O.O.O.O.O.O.O.O.O.O.O.O.O.O.O.O.O.O.O.O.O.b +.+.",
"+.h U O.O.O.O.O.O.O.O.O.O.O.O.O.O.O.O.O.O.O.O.O.O.O.O.O.O.O.O.O.O.O.O.O.O.O.O.O.O.O.O.O.O.O.O.O.P g +.",
"+.4  .O.O.O.O.O.O.O.O.O.O.O.O.O.O.O.O.O.O.O.O.O.O.O.O.O.O.O.O.O.O.O.O.O.O.O.O.O.O.O.O.O.O.O.O.O.{ 4 +.",
"+.x O.O.O.O.O.O.O.O.O.O.O.O.O.O.O.O.O.O.O.O.O.O.O.O.O.O.O.O.O.O.O.O.O.O.O.O.O.O.O.O.O.O.O.O.O.O.O.c +.",
"6 A O.O.O.O.O.O.O.O.O.O.O.O.O.O.O.O.O.O.O.O.O.O.W J _ O.O.O.O.O.O.O.O.O.O.O.O.O.O.O.O.O.O.O.O.O.O.Z 9 ",
"s Y O.O.O.O.O.O.O.O.O.O.O.O.O.O.O.O.O.O.O.O.H +       - } O.O.O.O.O.O.O.O.O.O.O.O.O.O.O.O.O.O.O.O.Y f ",
"p ^ O.O.O.O.O.O.O.O.O.O.O.O.O.O.O.O.O.O.O.E . = ) | N . ; O.O.O.O.O.O.O.O.O.O.O.O.O.O.O.O.O.O.O.O.^ s ",
"r ] O.O.O.O.O.O.O.O.O.O.O.O.O.O.O.O.O.O.O.: X } O.O.O.M > O.O.O.O.O.O.O.O.O.O.O.O.O.O.O.O.O.O.O.O.' e ",
"7 X.O.O.O.O.O.O.O.O.O.O.O.O.O.O.O.O.O.O.O.$ % O.O.O.O.O.O.O.O.O.O.O.O.O.O.O.O.O.O.O.O.O.O.O.O.O.O...6 ",
"4 O.O.O.O.O.O.O.O.O.O.O.O.O.O.O.O.O.O.O.O.@ - O.O.O.O.O.O.O.O.O.O.O.O.O.O.O.O.O.O.O.O.O.O.O.O.O.O.O.4 ",
"7 X.O.O.O.O.O.O.O.O.O.O.O.O.O.O.O.O.O.O.O.* O O.O.O.O.H < O.O.O.O.O.O.O.O.O.O.O.O.O.O.O.O.O.O.O.O...6 ",
"r ] O.O.O.O.O.O.O.O.O.O.O.O.O.O.O.O.O.O.O.,   R O.O.O.% & O.O.O.O.O.O.O.O.O.O.O.O.O.O.O.O.O.O.O.O.' e ",
"p ^ O.O.O.O.O.O.O.O.O.O.O.O.O.O.O.O.O.O.O.` X # L ` 2   G O.O.O.O.O.O.O.O.O.O.O.O.O.O.O.O.O.O.O.O.^ s ",
"s Y O.O.O.O.O.O.O.O.O.O.O.O.O.O.O.O.O.O.O.O.F o       1 O.O.O.O.O.O.O.O.O.O.O.O.O.O.O.O.O.O.O.O.O.Y f ",
"6 A O.O.O.O.O.O.O.O.O.O.O.O.O.O.O.O.O.O.O.O.O.o.T K | O.O.O.O.O.O.O.O.O.O.O.O.O.O.O.O.O.O.O.O.O.O.A 9 ",
"+.c O.O.O.O.O.O.O.O.O.O.O.O.O.O.O.O.O.O.O.O.O.O.O.O.O.O.O.O.O.O.O.O.O.O.O.O.O.O.O.O.O.O.O.O.O.O.O.x +.",
"+.4  .O.O.O.O.O.O.O.O.O.O.O.O.O.O.O.O.O.O.O.O.O.O.O.O.O.O.O.O.O.O.O.O.O.O.O.O.O.O.O.O.O.O.O.O.O.{ 4 +.",
"+.f U O.O.O.O.O.O.O.O.O.O.O.O.O.O.O.O.O.O.O.O.O.O.O.O.O.O.O.O.O.O.O.O.O.O.O.O.O.O.O.O.O.O.O.O.O.I f +.",
"+.+.n O.O.O.O.O.O.O.O.O.O.O.O.O.O.O.O.O.O.O.O.O.O.O.O.O.O.O.O.O.O.O.O.O.O.O.O.O.O.O.O.O.O.O.O.O.b +.+.",
"+.+.e ( O.O.O.O.O.O.O.O.O.O.O.O.O.O.O.O.O.O.O.O.O.O.O.O.O.O.O.O.O.O.O.O.O.O.O.O.O.O.O.O.O.O.O./ r +.+.",
"+.+.4 V O.O.O.O.O.O.O.O.O.O.O.O.O.O.O.O.O.O.O.O.O.O.O.O.O.O.O.O.O.O.O.O.O.O.O.O.O.O.O.O.O.O.O.B 3 +.+.",
"+.+.+.w ^ O.O.O.O.O.O.O.O.O.O.O.O.O.O.O.O.O.O.O.O.O.O.O.O.O.O.O.O.O.O.O.O.O.O.O.O.O.O.O.O.O.^ q +.+.+.",
"+.+.+.+.m O.O.O.O.O.O.O.O.O.O.O.O.O.O.O.O.O.O.O.O.O.O.O.O.O.O.O.O.O.O.O.O.O.O.O.O.O.O.O.O.O.b +.+.+.+.",
"+.+.+.+.a D O.O.O.O.O.O.O.O.O.O.O.O.O.O.O.O.O.O.O.O.O.O.O.O.O.O.O.O.O.O.O.O.O.O.O.O.O.O.O.S d +.+.+.+.",
"+.+.+.+.+.4 ~ O.O.O.O.O.O.O.O.O.O.O.O.O.O.O.O.O.O.O.O.O.O.O.O.O.O.O.O.O.O.O.O.O.O.O.O.O.Q 4 +.+.+.+.+.",
"+.+.+.+.+.+.j [ O.O.O.O.O.O.O.O.O.O.O.O.O.O.O.O.O.O.O.O.O.O.O.O.O.O.O.O.O.O.O.O.O.O.O.] k +.+.+.+.+.+.",
"+.+.+.+.+.+.4 z  .O.O.O.O.O.O.O.O.O.O.O.O.O.O.O.O.O.O.O.O.O.O.O.O.O.O.O.O.O.O.O.O.O.{ z 3 +.+.+.+.+.+.",
"+.+.+.+.+.+.+.y z ] O.O.O.O.O.O.O.O.O.O.O.O.O.O.O.O.O.O.O.O.O.O.O.O.O.O.O.O.O.O.O.] z i +.+.+.+.+.+.+.",
"+.+.+.+.+.+.+.+.4 j ~ O.O.O.O.O.O.O.O.O.O.O.O.O.O.O.O.O.O.O.O.O.O.O.O.O.O.O.O.O.~ k 3 +.+.+.+.+.+.+.+.",
"+.+.+.+.+.+.+.+.+.+.4 D O.O.O.O.O.O.O.O.O.O.O.O.O.O.O.O.O.O.O.O.O.O.O.O.O.O.O.S 4 +.+.+.+.+.+.+.+.+.+.",
"+.+.+.+.+.+.+.+.+.+.+.f n ^ O.O.O.O.O.O.O.O.O.O.O.O.O.O.O.O.O.O.O.O.O.O.O.^ b f +.+.+.+.+.+.+.+.+.+.+.",
"+.+.+.+.+.+.+.+.+.+.+.+.+.0 C ( O.O.O.O.O.O.O.O.O.O.O.O.O.O.O.O.O.O.O.( V q +.+.+.+.+.+.+.+.+.+.+.+.+.",
"+.+.+.+.+.+.+.+.+.+.+.+.+.+.4 e n U  .O.O.O.O.O.O.O.O.O.O.O.O.O. .U b u 6 +.+.+.+.+.+.+.+.+.+.+.+.+.+.",
"+.+.+.+.+.+.+.+.+.+.+.+.+.+.+.+.+.f 4 c A Y ^ ] X.O.X.] ^ Y A c 4 h +.+.+.+.+.+.+.+.+.+.+.+.+.+.+.+.+.",
"+.+.+.+.+.+.+.+.+.+.+.+.+.+.+.+.+.+.+.+.8 s p r 7 4 7 r p f 3 +.+.+.+.+.+.+.+.+.+.+.+.+.+.+.+.+.+.+.+."
};
