/* XPM */
static char *result[] = {
/* columns rows colors chars-per-pixel */
"51 51 59 1 ",
"  c black",
". c #0D0B0A",
"X c #151212",
"o c #1B1716",
"O c #211C1B",
"+ c #251F1E",
"@ c #312828",
"# c #342B2A",
"$ c #3E3433",
"% c #433837",
"& c #4F4141",
"* c #514342",
"= c #534544",
"- c #564746",
"; c #60504F",
": c #725F5E",
"> c #7B6665",
", c #7E6867",
"< c #B85450",
"1 c #826C6B",
"2 c #836D6C",
"3 c #856F6E",
"4 c #8B7472",
"5 c #907876",
"6 c #947B7A",
"7 c #9B807F",
"8 c #9E8382",
"9 c #9F8482",
"0 c #A18685",
"q c #A28786",
"w c #A58988",
"e c #A78B8A",
"r c #AA8D8C",
"t c #AD908E",
"y c #AF9190",
"u c #B69796",
"i c #C2A19F",
"p c #C4A3A2",
"a c #C5A4A2",
"s c #C7A6A4",
"d c #CBA9A7",
"f c #D2AFAD",
"g c #D6B2B0",
"h c #D8B3B2",
"j c #DAB5B3",
"k c #DFB9B7",
"l c #E0BAB8",
"z c #E5BEBC",
"x c #E7BFBE",
"c c #E7C0BE",
"v c #EBC4C2",
"b c #EDC5C3",
"n c #EEC6C4",
"m c #EFC7C5",
"M c #F4CBC9",
"N c #F5CCCA",
"B c #F6CCCA",
"V c #F7CDCB",
"C c #F8CECC",
/* pixels */
"<<<<<<<<<<<<<<<<<<<<<<<<<<<<<<<<<<<<<<<<<<<<<<<<<<<",
"<CCCCCCCCCCCCCCCCCCCCCCCCCCCCCCCCCCCCCCCCCCCCCCCCC<",
"<CCCCCCCCCCCCCCCCCCCCCCCCCCCCCCCCCCCCCCCCCCCCCCCCC<",
"<CCCCCCCCCCCCCCCCCCCCCCCCCCCCCCCCCCCCCCCCCCCCCCCCC<",
"<CCCCCCCCCCCCCCCCCCCCCCCCCCCCCCCCCCCCCCCCCCCCCCCCC<",
"<CCCCCCCCCCCCCCCCCCCCCCCCCCCCCCCCCCCCCCCCCCCCCCCCC<",
"<CCCCCCCCCCCCCCCCCCCCCCCCCCCCCCCCCCCCCCCCCCCCCCCCC<",
"<CCCCCCCCCCCCCCCCCCCCCCCCCCCCCCCCCCCCCCCCCCCCCCCCC<",
"<CCCCCCCCCCCCCCCCCCCCCCCCCCCCCCCCCCCCCCCCCCCCCCCCC<",
"<CCCCCCCCCCCCCCCCCCCCCCCCCCCCCCCCCCCCCCCCCCCCCCCCC<",
"<CCCCCCCCCCCCCCCCCCCCCCCCCCCCCCCCCCCCCCCCCCCCCCCCC<",
"<CCCCCCCCCCCCCCCCCCCCCCCCCCCCCCCCCCCCCCCCCCCCCCCCC<",
"<CCCCCCCCCCCCCCCCCCCCCCCCCCCCCCCCCCCCCCCCCCCCCCCCC<",
"<CCCCCCCCCCCCCCCCCCCCCCCCCCCCCCCCCCCCCCCCCCCCCCCCC<",
"<CCCCCCCCCCCCCCCCCCCCCCCCCCCCCCCCCCCCCCCCCCCCCCCCC<",
"<CCCCCCCCCCCCCCCCCCCCCCCCCCCCCCCCCCCCCCCCCCCCCCCCC<",
"<CCCCCCCCCCCCCCCCCCCCCCCCCCCCCCCCCCCCCCCCCCCCCCCCC<",
"<CCCCCCCCCCCCCCCCCCCCCCCCCCCCCCCCCCCCCCCCCCCCCCCCC<",
"<CCCCCCCCCCCCCCCCCCCCCCCCCCCCCCCCCCCCCCCCCCCCCCCCC<",
"<CCCCCCCCCCCCCCCCCCCCCCCCCCCCCCCCCCCCCCCCCCCCCCCCC<",
"<CCCCCCCCCCCCCCCCCCCCCCCCCCCCCCCCCCCCCCCCCCCCCCCCC<",
"<CCCCCCCCCCCCCCm      wCCCCCCuXCjwCCCCCCCCCCCCCCCC<",
"<CCCCCCCCCCCCCCn rhhhhbCCCCCCciCtOCCCCCCCCCCCCCCCC<",
"<CCCCCCCCCCCCCCn pCCCCC:-BN=3a&hO *CCCCCCCCCCCCCCC<",
"<CCCCCCCCCCCCCCn ,000qCf 76.luXn1XsCCCCCCCCCCCCCCC<",
"<CCCCCCCCCCCCCCn O@@@#CC2..8CuXCtOCCCCCCCCCCCCCCCC<",
"<CCCCCCCCCCCCCCn pCCCCCCn oVCuXCtOCCCCCCCCCCCCCCCC<",
"<CCCCCCCCCCCCCCn pCCCCCC4. eCuXCtOCCCCCCCCCCCCCCCC<",
"<CCCCCCCCCCCCCCn 9ddddzg 0>XxuXCyXMCCCCCCCCCCCCCCC<",
"<CCCCCCCCCCCCCCm      5%$VmO;uXCkX+CCCCCCCCCCCCCCC<",
"<CCCCCCCCCCCCCCCCCCCCCCCCCCCCCCCCMvCCCCCCCCCCCCCCC<",
"<CCCCCCCCCCCCCCCCCCCCCCCCCCCCCCCCCCCCCCCCCCCCCCCCC<",
"<CCCCCCCCCCCCCCCCCCCCCCCCCCCCCCCCCCCCCCCCCCCCCCCCC<",
"<CCCCCCCCCCCCCCCCCCCCCCCCCCCCCCCCCCCCCCCCCCCCCCCCC<",
"<CCCCCCCCCCCCCCCCCCCCCCCCCCCCCCCCCCCCCCCCCCCCCCCCC<",
"<CCCCCCCCCCCCCCCCCCCCCCCCCCCCCCCCCCCCCCCCCCCCCCCCC<",
"<CCCCCCCCCCCCCCCCCCCCCCCCCCCCCCCCCCCCCCCCCCCCCCCCC<",
"<CCCCCCCCCCCCCCCCCCCCCCCCCCCCCCCCCCCCCCCCCCCCCCCCC<",
"<CCCCCCCCCCCCCCCCCCCCCCCCCCCCCCCCCCCCCCCCCCCCCCCCC<",
"<CCCCCCCCCCCCCCCCCCCCCCCCCCCCCCCCCCCCCCCCCCCCCCCCC<",
"<CCCCCCCCCCCCCCCCCCCCCCCCCCCCCCCCCCCCCCCCCCCCCCCCC<",
"<CCCCCCCCCCCCCCCCCCCCCCCCCCCCCCCCCCCCCCCCCCCCCCCCC<",
"<CCCCCCCCCCCCCCCCCCCCCCCCCCCCCCCCCCCCCCCCCCCCCCCCC<",
"<CCCCCCCCCCCCCCCCCCCCCCCCCCCCCCCCCCCCCCCCCCCCCCCCC<",
"<CCCCCCCCCCCCCCCCCCCCCCCCCCCCCCCCCCCCCCCCCCCCCCCCC<",
"<CCCCCCCCCCCCCCCCCCCCCCCCCCCCCCCCCCCCCCCCCCCCCCCCC<",
"<CCCCCCCCCCCCCCCCCCCCCCCCCCCCCCCCCCCCCCCCCCCCCCCCC<",
"<CCCCCCCCCCCCCCCCCCCCCCCCCCCCCCCCCCCCCCCCCCCCCCCCC<",
"<CCCCCCCCCCCCCCCCCCCCCCCCCCCCCCCCCCCCCCCCCCCCCCCCC<",
"<CCCCCCCCCCCCCCCCCCCCCCCCCCCCCCCCCCCCCCCCCCCCCCCCC<",
"<<<<<<<<<<<<<<<<<<<<<<<<<<<<<<<<<<<<<<<<<<<<<<<<<<<"
};
