/* XPM */
static char *result[] = {
/* columns rows colors chars-per-pixel */
"64 64 7 1 ",
"  c #222222",
". c #DC4A7B",
"X c #417089",
"o c #72D6CE",
"O c #F78697",
"+ c #FDF7ED",
"@ c None",
/* pixels */
"@@@@@@@@@@@@@@@@@@@@@@@@@@@@@@@@@@@@@@@@@@@@@@@@@@@@@@@@@@@@@@@@",
"@@@@@@@@@@@@@@@@@@@@@@@@@@@@@@@@@@@@@@@@@@@@@@@@@@@@@@@@@@@@@@@@",
"@@@@@@@@@@@@@@@@@@@@@@@@@@@@@@@@@@@@@@@@@@@@@@@@@@@@@@@@@@@@@@@@",
"@@@@@@@@@@@@@@                   @@@@@@@@@@@@@@@@@@@@@@@@@@@@@@@",
"@@@@@@@@@@@@@@                   @@@@@@@@@@@@@@@@@@@@@@@@@@@@@@@",
"@@@@@@@@@@@@@@                   @@@@@@@@@@@@@@@@@@@@@@@@@@@@@@@",
"@@@@@@@@@@@   ......OOOOOOOOOOOOO   @@@@@@@@@@@@@@@@@@@@@@@@@@@@",
"@@@@@@@@@@@   ......OOOOOOOOOOOOO   @@@@@@@@@@@@@@@@@@@@@@@@@@@@",
"@@@@@@@@@@@   ......OOOOOOOOOOOOO   @@@@@@@@@@@@@@@@@@@@@@@@@@@@",
"@@@@@@@    ...      .......OOOOOOOOO   @@@@@@@@@@@@@@@@@@@@@@@@@",
"@@@@@@@    ...      .......OOOOOOOOO   @@@@@@@@@@@@@@@@@@@@@@@@@",
"@@@@@@@    ...      .......OOOOOOOOO   @@@@@@@@@@@@@@@@@@@@@@@@@",
"@@@@@@@@@@@   @@@@@@   .......OOOOOO   @@@@@@@@@@@@@@@@@@@@@@@@@",
"@@@@@@@@@@@   @@@@@@   .......OOOOOO   @@@@@@@@@@@@@@@@@@@@@@@@@",
"@@@@@@@@@@@@@@@@@          ......                @@@@@@@@@@@@@@@",
"@@@@@@@@@@@@@@@@@          ......                @@@@@@@@@@@@@@@",
"@@@@@@@@@@@@@@@@@          ......                @@@@@@@@@@@@@@@",
"@@@@@@@@@@@@@@@@@   ooooooooooooooooooo+++++++   @@@@@@@@@@@@@@@",
"@@@@@@@@@@@@@@@@@   ooooooooooooooooooo+++++++   @@@@@@@@@@@@@@@",
"@@@@@@@@@@@@@@@@@   ooooooooooooooooooo+++++++   @@@@@@@@@@@@@@@",
"@@@@@@@@@@@@@@@@@   oooooooXXXXXXXXXXXXXXXXXXX         @@@@@@@@@",
"@@@@@@@@@@@@@@@@@   oooooooXXXXXXXXXXXXXXXXXXX         @@@@@@@@@",
"@@@@@@@@@@@@@@@@@   oooooooXXXXXXXXXXXXXXXXXXX         @@@@@@@@@",
"@@@@@@@@@@@@@@@@@   oooooooXXXoooooooooooooooo++++++   @@@@@@@@@",
"@@@@@@@@@@@@@@@@@   oooooooXXXoooooooooooooooo++++++   @@@@@@@@@",
"@@@@@@@@@@@@@@@@@   oooooooXXXoooooooooooooooo++++++   @@@@@@@@@",
"@@@@@@@@@@@@@@@@@   oooooooXXXoooXXXoooXXXXoooXXX+++   @@@@@@@@@",
"@@@@@@@@@@@@@@@@@   oooooooXXXoooXXXoooXXXXoooXXX+++   @@@@@@@@@",
"@@@@@@@@@@@@@@@@@   oooooooXXXoooXXXoooXXXXoooXXX+++   @@@@@@@@@",
"@@@@@@@@@@@@@@@@@   oooooooXXXoooXXXoooXXXXoooXXX+++   @@@@@@@@@",
"@@@@@@@@@@@@@@@@@   oooooooXXXoooXXXoooXXXXoooXXX+++   @@@@@@@@@",
"@@@@@@@@@@@@@@@@@   oooooooXXXoooXXXoooXXXXoooXXX+++   @@@@@@@@@",
"@@@@@@@@@@@@@@@@@   oooooooXXXoooXXXoooXXXXoooXXX+++   @@@@@@@@@",
"@@@@@@@@@@@@@@@@@   oooooooXXXoooXXXoooXXXXoooXXX+++   @@@@@@@@@",
"@@@@@@@@@@@@@@@@@   oooooooXXXoooooooooooooooo++++++   @@@@@@@@@",
"@@@@@@@@@@@@@@@@@   oooooooXXXoooooooooooooooo++++++   @@@@@@@@@",
"@@@@@@@@@@@@@@@@@   oooooooXXXoooooooooooooooo++++++   @@@@@@@@@",
"@@@@@@@@@@@@@@@@@   oooooooXXXXXXXXXXXXXXXXXXX         @@@@@@@@@",
"@@@@@@@@@@@@@@@@@   oooooooXXXXXXXXXXXXXXXXXXX         @@@@@@@@@",
"@@@@@@@@@@@@@@@@@   oooooooXXXXXXXXXXXXXXXXXXX         @@@@@@@@@",
"@@@@@@@@@@@@@@@@@   ooooooooooooooooooooooo+++   @@@@@@@@@@@@@@@",
"@@@@@@@@@@@@@@@@@   ooooooooooooooooooooooo+++   @@@@@@@@@@@@@@@",
"@@@@@@@@@@@@@@@@@   ooooooooooooooooooooooo+++   @@@@@@@@@@@@@@@",
"@@@@@@@@@@@@@@@@@   XXXXXXXXXXXXXXXXXXXXXXXooo   @@@@@@@@@@@@@@@",
"@@@@@@@@@@@@@@@@@   XXXXXXXXXXXXXXXXXXXXXXXooo   @@@@@@@@@@@@@@@",
"@@@@@@@@@@@@@@@@@   ooooooooooooooooooooooo+++   @@@@@@@@@@@@@@@",
"@@@@@@@@@@@@@@@@@   ooooooooooooooooooooooo+++   @@@@@@@@@@@@@@@",
"@@@@@@@@@@@@@@@@@   ooooooooooooooooooooooo+++   @@@@@@@@@@@@@@@",
"@@@@@@@@@@@@@@@@@   ooooooooooooooooooooooo+++   @@@@@@@@@@@@@@@",
"@@@@@@@@@@@@@@@@@   ooooooooooooooooooooooo+++   @@@@@@@@@@@@@@@",
"@@@@@@@@@@@@@@@@@   ooooooooooooooooooooooo+++   @@@@@@@@@@@@@@@",
"@@@@@@@@@@@@@@@@@   XXXXXXX            XXXXXXX   @@@@@@@@@@@@@@@",
"@@@@@@@@@@@@@@@@@   XXXXXXX            XXXXXXX   @@@@@@@@@@@@@@@",
"@@@@@@@@@@@@@@@@@   XXXXXXX            XXXXXXX   @@@@@@@@@@@@@@@",
"@@@@@@@@@@@@@@@@@   XXX    @@@@@@@@@   XXXX   @@@@@@@@@@@@@@@@@@",
"@@@@@@@@@@@@@@@@@   XXX    @@@@@@@@@   XXXX   @@@@@@@@@@@@@@@@@@",
"@@@@@@@@@@@@@@@@@   XXX    @@@@@@@@@   XXXX   @@@@@@@@@@@@@@@@@@",
"@@@@@@@@@@@@@@@@@      @@@@@@@@@@@@@       @@@@@@@@@@@@@@@@@@@@@",
"@@@@@@@@@@@@@@@@@      @@@@@@@@@@@@@       @@@@@@@@@@@@@@@@@@@@@",
"@@@@@@@@@@@@@@@@@      @@@@@@@@@@@@@       @@@@@@@@@@@@@@@@@@@@@",
"@@@@@@@@@@@@@@@@@@@@@@@@@@@@@@@@@@@@@@@@@@@@@@@@@@@@@@@@@@@@@@@@",
"@@@@@@@@@@@@@@@@@@@@@@@@@@@@@@@@@@@@@@@@@@@@@@@@@@@@@@@@@@@@@@@@",
"@@@@@@@@@@@@@@@@@@@@@@@@@@@@@@@@@@@@@@@@@@@@@@@@@@@@@@@@@@@@@@@@",
"@@@@@@@@@@@@@@@@@@@@@@@@@@@@@@@@@@@@@@@@@@@@@@@@@@@@@@@@@@@@@@@@"
};
