/* XPM */
static char *result[] = {
/* columns rows colors chars-per-pixel */
"51 71 101 2 ",
"   c #9833FF",
".  c #9933FF",
"X  c #9A33FF",
"o  c #9934FF",
"O  c #9935FF",
"+  c #9A34FF",
"@  c #9A35FF",
"#  c #9B35FF",
"$  c #9A36FF",
"%  c #9B36FF",
"&  c #9A37FF",
"*  c #9B37FF",
"=  c #9C37FF",
"-  c #9B38FF",
";  c #9C38FF",
":  c #9C39FF",
">  c #9D39FF",
",  c #9C3AFF",
"<  c #9D3AFF",
"1  c #9C3BFF",
"2  c #9D3BFF",
"3  c #9E3BFF",
"4  c #9D3CFF",
"5  c #9E3CFF",
"6  c #9E3DFF",
"7  c #9E3EFF",
"8  c #9F3EFF",
"9  c #9F3FFF",
"0  c #A041FF",
"q  c #A244FF",
"w  c #A245FF",
"e  c #A347FF",
"r  c #A447FF",
"t  c #A348FF",
"y  c #A54BFF",
"u  c #A751FF",
"i  c #AA54FF",
"p  c #AA55FF",
"a  c #AB55FF",
"s  c #AB56FF",
"d  c #AB59FF",
"f  c #AC58FF",
"g  c #AC59FF",
"h  c #AC5AFF",
"j  c #AD5BFF",
"k  c #AD5CFF",
"l  c #AE5CFF",
"z  c #AE5DFF",
"x  c #AF5EFF",
"c  c #AF5FFF",
"v  c #B05FFF",
"b  c #AF60FF",
"n  c #B060FF",
"m  c #B163FF",
"M  c #B264FF",
"N  c #B265FF",
"B  c #B367FF",
"V  c #B368FF",
"C  c #B468FF",
"Z  c #B469FF",
"A  c #B56AFF",
"S  c #B56BFF",
"D  c #B66DFF",
"F  c #B76DFF",
"G  c #B76EFF",
"H  c #B76FFF",
"J  c #B972FF",
"K  c #B973FF",
"L  c #BA74FF",
"P  c #BA75FF",
"I  c #BB77FF",
"U  c #BC77FF",
"Y  c #BB78FF",
"T  c #BC78FF",
"R  c #BC79FF",
"E  c #BD7AFF",
"W  c #BD7BFF",
"Q  c #BE7DFF",
"!  c #BE7EFF",
"~  c #C081FF",
"^  c #C082FF",
"/  c #C182FF",
"(  c #C184FF",
")  c #C284FF",
"_  c #C285FF",
"`  c #C286FF",
"'  c #C386FF",
"]  c #C387FF",
"[  c #C489FF",
"{  c #C58CFF",
"}  c #C68CFF",
"|  c #C68DFF",
" . c #C891FF",
".. c #C993FF",
"X. c #CA96FF",
"o. c #CB96FF",
"O. c #CB97FF",
"+. c #CB98FF",
"@. c #CC98FF",
"#. c #CC99FF",
"$. c None",
/* pixels */
"$.$.$.$.$.$.$.$.$.$.$.$.$.$.$.$.$.$.$.$.$.$.< - + . + ; < $.$.$.$.$.$.$.$.$.$.$.$.$.$.$.$.$.$.$.$.$.$.",
"$.$.$.$.$.$.$.$.$.$.$.$.$.$.$.$.$.$.$.@ * j E } O.#.O.} E k * $ $.$.$.$.$.$.$.$.$.$.$.$.$.$.$.$.$.$.$.",
"$.$.$.$.$.$.$.$.$.$.$.$.$.$.$.$.$.$.. Z #.#.#.#.#.#.#.#.#.#.#.Z . $.$.$.$.$.$.$.$.$.$.$.$.$.$.$.$.$.$.",
"$.$.$.$.$.$.$.$.$.$.$.$.$.$.$.$.$.6 ` #.#.#.#.#.#.#.#.#.#.#.#.#._ 1 $.$.$.$.$.$.$.$.$.$.$.$.$.$.$.$.$.",
"$.$.$.$.$.$.$.$.$.$.$.$.$.$.$.$.* [ #.#.#.#.#.#.#.#.#.#.#.#.#.#.#.[ $ $.$.$.$.$.$.$.$.$.$.$.$.$.$.$.$.",
"$.$.$.$.$.$.$.$.$.$.$.$.$.$.$.* U #.#.#.#.#.#.#.#.#.#.#.#.#.#.#.#.#.I * $.$.$.$.$.$.$.$.$.$.$.$.$.$.$.",
"$.$.$.$.$.$.$.$.$.$.$.$.$.$.* f #.#.#.#.#.#.#.#.#.#.#.#.#.#.#.#.#.#.#.s # $.$.$.$.$.$.$.$.$.$.$.$.$.$.",
"$.$.$.$.$.$.$.$.$.$.$.$.$.$.@ } #.#.#.#.#.#.#.#.#.#.#.#.#.#.#.#.#.#.#.{ o $.$.$.$.$.$.$.$.$.$.$.$.$.$.",
"$.$.$.$.$.$.$.$.$.$.$.$.$.$.f #.#.#.#.#.#.#.#.#.#.#.#.#.#.#.#.#.#.#.#.#.s $.$.$.$.$.$.$.$.$.$.$.$.$.$.",
"$.$.$.$.$.$.$.$.$.$.$.$.$.2 Q #.#.#.#.#.#.#.#.#.#.#.#.#.#.#.#.#.#.#.#.#.Q : $.$.$.$.$.$.$.$.$.$.$.$.$.",
"$.$.$.$.$.$.$.$.$.$.$.$.$.@ #.#.#.#.#.#.#.#.#.#.#.#.#.#.#.#.#.#.#.#.#.#.#.@ $.$.$.$.$.$.$.$.$.$.$.$.$.",
"$.$.$.$.$.$.$.$.$.$.$.$.$.e #.#.#.#.#.#.#.#.#.#.#.#.#.#.#.#.#.#.#.#.#.#.#.w $.$.$.$.$.$.$.$.$.$.$.$.$.",
"$.$.$.$.$.$.$.$.$.$.$.$.$.f #.#.#.#.#.#.#.#.#.#.#.#.#.#.#.#.#.#.#.#.#.#.#.p $.$.$.$.$.$.$.$.$.$.$.$.$.",
"$.$.$.$.$.$.$.$.$.$.$.$.$.m #.#.#.#.#.#.#.#.#.#.#.#.#.#.#.#.#.#.#.#.#.#.#.v $.$.$.$.$.$.$.$.$.$.$.$.$.",
"$.$.$.$.$.$.$.$.$.$.$.$.& B #.#.#.#.#.#.#.#.#.#.#.#.#.#.#.#.#.#.#.#.#.#.#.M o $.$.$.$.$.$.$.$.$.$.$.$.",
"$.$.$.$.$.$.$.$.$.$.$.$.$.m #.#.#.#.#.#.#.#.#.#.#.#.#.#.#.#.#.#.#.#.#.#.#.c $.$.$.$.$.$.$.$.$.$.$.$.$.",
"$.$.$.$.$.$.$.$.$.$.$.$.$.g #.#.#.#.#.#.#.#.#.#.#.#.#.#.#.#.#.#.#.#.#.#.#.i $.$.$.$.$.$.$.$.$.$.$.$.$.",
"$.$.$.$.$.$.$.$.$.$.$.$.$.t #.#.#.#.#.#.#.#.#.#.#.#.#.#.#.#.#.#.#.#.#.#.#.q $.$.$.$.$.$.$.$.$.$.$.$.$.",
"$.$.$.$.$.$.$.$.$.$.$.$.$.$ #.#.#.#.#.#.#.#.#.#.#.#.#.#.#.#.#.#.#.#.#.#.#.+ $.$.$.$.$.$.$.$.$.$.$.$.$.",
"$.$.$.$.$.$.$.$.$.$.$.$.$.4 ! #.#.#.#.#.#.#.#.#.#.#.#.#.#.#.#.#.#.#.#.#.Q ; $.$.$.$.$.$.$.$.$.$.$.$.$.",
"$.$.$.$.$.$.$.$.$.$.$.$.$.$.d #.#.#.#.#.#.#.#.#.#.#.#.#.#.#.#.#.#.#.#.#.p $.$.$.$.$.$.$.$.$.$.$.$.$.$.",
"$.$.$.$.$.$.$.$.$.$.$.$.$.$.o } #.#.#.#.#.#.#.#.#.#.#.#.#.#.#.#.#.#.#.} o $.$.$.$.$.$.$.$.$.$.$.$.$.$.",
"$.$.$.$.$.$.$.$.$.$.$.$.$.$.> h #.#.#.#.#.#.#.#.#.#.#.#.#.#.#.#.#.#.#.s X $.$.$.$.$.$.$.$.$.$.$.$.$.$.",
"$.$.$.$.$.$.$.$.$.$.$.$.$.$.$., T #.#.#.#.#.#.#.#.#.#.#.#.#.#.#.#.#.Y % $.$.$.$.$.$.$.$.$.$.$.$.$.$.$.",
"$.$.$.$.$.$.$.$.$.$.$.$.$.$.$.$.; [ #.#.#.#.#.#.#.#.#.#.#.#.#.#.#.[ * $.$.$.$.$.$.$.$.$.$.$.$.$.$.$.$.",
"$.$.$.$.$.$.$.$.$.$.$.$.$.$.$.$.$.9 ' #.#.#.#.#.#.#.#.#.#.#.#.#.` 4 $.$.$.$.$.$.$.$.$.$.$.$.$.$.$.$.$.",
"$.$.$.$.$.$.$.$.$.$.$.$.$.$.$.$.$.$.+ A #.#.#.#.#.#.#.#.#.#.#.Z + $.$.$.$.$.$.$.$.$.$.$.$.$.$.$.$.$.$.",
"$.$.$.$.$.$.$.$.$.$.$.$.$.$.$.$.$.$.$.$ ; z W | O.#.O.| W j *   $.$.$.$.$.$.$.$.$.$.$.$.$.$.$.$.$.$.$.",
"$.$.$.$.$.$.$.$.$.$.$.$.$.$.$.$.$.$.o O & @ o . . . . . @ @ & O o $.$.$.$.$.$.$.$.$.$.$.$.$.$.$.$.$.$.",
"$.$.$.$.$.$.$.$.$.$.$.$.$.$.- + 0 a Z R ( | ..+.#.#.#.+...| ( R Z p 0 o ; $.$.$.$.$.$.$.$.$.$.$.$.$.$.",
"$.$.$.$.$.$.$.$.$.$.$.+ + s E X.#.#.#.#.#.#.#.#.#.#.#.#.#.#.#.#.#.#.#.X.E a o O $.$.$.$.$.$.$.$.$.$.$.",
"$.$.$.$.$.$.$.$.$.% * C X.#.#.#.#.#.#.#.#.#.#.#.#.#.#.#.#.#.#.#.#.#.#.#.#.#.X.V % X $.$.$.$.$.$.$.$.$.",
"$.$.$.$.$.$.$.$., k ..#.#.#.#.#.#.#.#.#.#.#.#.#.#.#.#.#.#.#.#.#.#.#.#.#.#.#.#.#...j , $.$.$.$.$.$.$.$.",
"$.$.$.$.$.$.$.o K #.#.#.#.#.#.#.#.#.#.#.#.#.#.#.#.#.#.#.#.#.#.#.#.#.#.#.#.#.#.#.#.#.J o $.$.$.$.$.$.$.",
"$.$.$.$.$.$.. W #.#.#.#.#.#.#.#.#.#.#.#.#.#.#.#.#.#.#.#.#.#.#.#.#.#.#.#.#.#.#.#.#.#.#.W . $.$.$.$.$.$.",
"$.$.$.$.$.* P #.#.#.#.#.#.#.#.#.#.#.#.#.#.#.#.#.#.#.#.#.#.#.#.#.#.#.#.#.#.#.#.#.#.#.#.#.L $ $.$.$.$.$.",
"$.$.$.$.2 b #.#.#.#.#.#.#.#.#.#.#.#.#.#.#.#.#.#.#.#.#.#.#.#.#.#.#.#.#.#.#.#.#.#.#.#.#.#.#.x & $.$.$.$.",
"$.$.$.$.4 @.#.#.#.#.#.#.#.#.#.#.#.#.#.#.#.#.#.#.#.#.#.#.#.#.#.#.#.#.#.#.#.#.#.#.#.#.#.#.#.+., $.$.$.$.",
"$.$.$.< H #.#.#.#.#.#.#.#.#.#.#.#.#.#.#.#.#.#.#.#.#.#.#.#.#.#.#.#.#.#.#.#.#.#.#.#.#.#.#.#.#.G $ $.$.$.",
"$.$.$.- #.#.#.#.#.#.#.#.#.#.#.#.#.#.#.#.#.#.#.#.#.#.#.#.#.#.#.#.#.#.#.#.#.#.#.#.#.#.#.#.#.#.#.& $.$.$.",
"$.$.- c #.#.#.#.#.#.#.#.#.#.#.#.#.#.#.#.#.#.#.#.#.#.#.#.#.#.#.#.#.#.#.#.#.#.#.#.#.#.#.#.#.#.#.l $.$.$.",
"$.$.1 ~ #.#.#.#.#.#.#.#.#.#.#.#.#.#.#.#.#.#.#.#.#.#.#.#.#.#.#.#.#.#.#.#.#.#.#.#.#.#.#.#.#.#.#.~ ; $.$.",
"$.$., #.#.#.#.#.#.#.#.#.#.#.#.#.#.#.#.#.#.#.#.#.#.#.#.#.#.#.#.#.#.#.#.#.#.#.#.#.#.#.#.#.#.#.#.#.; $.$.",
"$.$.p #.#.#.#.#.#.#.#.#.#.#.#.#.#.#.#.#.#.#.#.#.#.#.#.#.#.#.#.#.#.#.#.#.#.#.#.#.#.#.#.#.#.#.#.#.u $.$.",
"$.5 H #.#.#.#.#.#.#.#.#.#.#.#.#.#.#.#.#.#.#.#.#.#.#.#.#.#.#.#.#.#.#.#.#.#.#.#.#.#.#.#.#.#.#.#.#.F O $.",
"$.2 ) #.#.#.#.#.#.#.#.#.#.#.#.#.#.#.#.#.#.#.#.#.#.#.#.#.#.#.#.#.#.#.#.#.#.#.#.#.#.#.#.#.#.#.#.#.( - $.",
"$.o O.#.#.#.#.#.#.#.#.#.#.#.#.#.#.#.#.#.#.#.#.#.#.#.#.#.#.#.#.#.#.#.#.#.#.#.#.#.#.#.#.#.#.#.#.#.O.o $.",
"$.7 #.#.#.#.#.#.#.#.#.#.#.#.#.#.#.#.#.#.#.#.#.#.#.#.#.#.#.#.#.#.#.#.#.#.#.#.#.#.#.#.#.#.#.#.#.#.#.2 $.",
"$.y #.#.#.#.#.#.#.#.#.#.#.#.#.#.#.#.#.#.#.#.#.#.#.#.#.#.#.#.#.#.#.#.#.#.#.#.#.#.#.#.#.#.#.#.#.#.#.r $.",
"$.h #.#.#.#.#.#.#.#.#.#.#.#.#.#.#.#.#.#.#.#.#.#.#.#.#.#.#.#.#.#.#.#.#.#.#.#.#.#.#.#.#.#.#.#.#.#.#.p $.",
"% N #.#.#.#.#.#.#.#.#.#.#.#.#.#.#.#.#.#.#.#.#.#.#.#.#.#.#.#.#.#.#.#.#.#.#.#.#.#.#.#.#.#.#.#.#.#.#.n $.",
"6 D #.#.#.#.#.#.#.#.#.#.#.#.#.#.#.#.#.#.#.#.#.#.#.#.#.#.#.#.#.#.#.#.#.#.#.#.#.#.#.#.#.#.#.#.#.#.#.S . ",
"7 K #.#.#.#.#.#.#.#.#.#.#.#.#.#.#.#.#.#.#.#.#.#.#.#.#.#.#.#.#.#.#.#.#.#.#.#.#.#.#.#.#.#.#.#.#.#.#.K X ",
"8 T #.#.#.#.#.#.#.#.#.#.#.#.#.#.#.#.#.#.#.#.#.#.#.#.#.#.#.#.#.#.#.#.#.#.#.#.#.#.#.#.#.#.#.#.#.#.#.Y - ",
"8 Q #.#.#.#.#.#.#.#.#.#.#.#.#.#.#.#.#.#.#.#.#.#.#.#.#.#.#.#.#.#.#.#.#.#.#.#.#.#.#.#.#.#.#.#.#.#.#.Q : ",
"6 / #.#.#.#.#.#.#.#.#.#.#.#.#.#.#.#.#.#.#.#.#.#.#.#.#.#.#.#.#.#.#.#.#.#.#.#.#.#.#.#.#.#.#.#.#.#.#.^ - ",
"4 ] #.#.#.#.#.#.#.#.#.#.#.#.#.#.#.#.#.#.#.#.#.#.#.#.#.#.#.#.#.#.#.#.#.#.#.#.#.#.#.#.#.#.#.#.#.#.#.] = ",
", } #.#.#.#.#.#.#.#.#.#.#.#.#.#.#.#.#.#.#.#.#.#.#.#.#.#.#.#.#.#.#.#.#.#.#.#.#.#.#.#.#.#.#.#.#.#.#.{ * ",
"&  .#.#.#.#.#.#.#.#.#.#.#.#.#.#.#.#.#.#.#.#.#.#.#.#.#.#.#.#.#.#.#.#.#.#.#.#.#.#.#.#.#.#.#.#.#.#.#. .@ ",
"@ o.#.#.#.#.#.#.#.#.#.#.#.#.#.#.#.#.#.#.#.#.#.#.#.#.#.#.#.#.#.#.#.#.#.#.#.#.#.#.#.#.#.#.#.#.#.#.#.o.o ",
". #.#.#.#.#.#.#.#.#.#.#.#.#.#.#.#.#.#.#.#.#.#.#.#.#.#.#.#.#.#.#.#.#.#.#.#.#.#.#.#.#.#.#.#.#.#.#.#.#.. ",
". #.#.#.#.#.#.#.#.#.#.#.#.#.#.#.#.#.#.#.#.#.#.#.#.#.#.#.#.#.#.#.#.#.#.#.#.#.#.#.#.#.#.#.#.#.#.#.#.#.. ",
". #.#.#.#.#.#.#.#.#.#.#.#.#.#.#.#.#.#.#.#.#.#.#.#.#.#.#.#.#.#.#.#.#.#.#.#.#.#.#.#.#.#.#.#.#.#.#.#.#.. ",
". #.#.#.#.#.#.#.#.#.#.#.#.#.#.#.#.#.#.#.#.#.#.#.#.#.#.#.#.#.#.#.#.#.#.#.#.#.#.#.#.#.#.#.#.#.#.#.#.#.. ",
". #.#.#.#.#.#.#.#.#.#.#.#.#.#.#.#.#.#.#.#.#.#.#.#.#.#.#.#.#.#.#.#.#.#.#.#.#.#.#.#.#.#.#.#.#.#.#.#.#.. ",
". #.#.#.#.#.#.#.#.#.#.#.#.#.#.#.#.#.#.#.#.#.#.#.#.#.#.#.#.#.#.#.#.#.#.#.#.#.#.#.#.#.#.#.#.#.#.#.#.#.. ",
". #.#.#.#.#.#.#.#.#.#.#.#.#.#.#.#.#.#.#.#.#.#.#.#.#.#.#.#.#.#.#.#.#.#.#.#.#.#.#.#.#.#.#.#.#.#.#.#.#.. ",
". #.#.#.#.#.#.#.#.#.#.#.#.#.#.#.#.#.#.#.#.#.#.#.#.#.#.#.#.#.#.#.#.#.#.#.#.#.#.#.#.#.#.#.#.#.#.#.#.#.. ",
". #.#.#.#.#.#.#.#.#.#.#.#.#.#.#.#.#.#.#.#.#.#.#.#.#.#.#.#.#.#.#.#.#.#.#.#.#.#.#.#.#.#.#.#.#.#.#.#.#.. ",
". #.#.#.#.#.#.#.#.#.#.#.#.#.#.#.#.#.#.#.#.#.#.#.#.#.#.#.#.#.#.#.#.#.#.#.#.#.#.#.#.#.#.#.#.#.#.#.#.#.. ",
"3 . . . . . . . . . . . . . . . . . . . . . . . . . . . . . . . . . . . . . . . . . . . . . . . . . , "
};
