/* XPM */
static char *result[] = {
/* columns rows colors chars-per-pixel */
"51 51 12 1 ",
"  c #D65822",
". c #D6673B",
"X c #D6673C",
"o c #D6683C",
"O c #D6683D",
"+ c #D66F48",
"@ c #D67049",
"# c #D6704A",
"$ c #D5856E",
"% c #D6876F",
"& c #D58770",
"* c None",
/* pixels */
"****XXXXXXXXXXXXXXXXXXXXXXX......................$$",
"*%%%@                                           +%$",
"*%%%@                                           +%$",
"*%%%@                                           +%$",
"*%%%@                                           +%$",
"*%%%@                                           +%$",
"*%%%@                                           +%$",
"*%%%@                                           +%$",
"*%%%@                                           +%$",
"*%%%@                                           +%$",
"*%%%@                                           +%$",
"*%%%@                                           +%$",
"*%%%@++++++++++++++++++++++++++++++++++++++++++++%$",
"*%%%%%%%%%%%%%%%%%%%%%%%%%%%%%%%%%%%%%%%%%%%%%%%%%$",
"*%%%%%%%%%%%%%%%%%%%%%%%%%%%%%%%%%%%%%%%%%%%%%%%%%$",
"$%%%%%%%%%%%%%%%%%%%%%%%%%%%%%%%%%%%%%%%%%%%%%%%%%$",
"*%%%%%%%%%%%%%%%%%%%%%%%%%%%%%%%%%%%%%%%%%%%%%%%%%$",
"X@@@@@@@@@@@@@@@@@@@@@@%%%%%@@@@@@@@@@@@@@@@@@@@@@X",
"X                     +%%%%%@                     .",
".                     +%%%%%+                     .",
".                     +%%%%%+                     .",
".                     +%%%%%+                     .",
".                     +%%%%%+                     .",
"X                     +%%%%%@                     .",
"X                     +%%%%%@                     .",
"X                     +%%%%%@                     .",
"X                     +%%%%%@                     .",
"X                     +%%%%%@                     .",
"X                     +%%%%%@                     .",
"X++++++++++++++++++++++%%%%%@+++++++++++++++++++++.",
"*%%%%%%%%%%%%%%%%%%%%%%%%%%%%%%%%%%%%%%%%%%%%%%%%%$",
"*%%%%%%%%%%%%%%%%%%%%%%%%%%%%%%%%%%%%%%%%%%%%%%%%%$",
"*%%%%%%%%%%%%%%%%%%%%%%%%%%%%%%%%%%%%%%%%%%%%%%%%%$",
"*%%%#@@@@@@@@@@@@@@@@@@@@@@@@@@@@@@@@@@@@@@@@@@@%%$",
"*%%%#                                          o%%$",
"*%%%#                                          o%%$",
"*%%%#                                          o%%$",
"*%%%#                                          o%%$",
"*%%%#                                          o%%$",
"*%%%#                                          o%%$",
"*%%%#                                          o%%$",
"*%%%#                                          o%%$",
"*%%%#                                          o%%$",
"*%%%#                                          O%%$",
"*%%%#                                          o%%$",
"*%%%#+++++++++@+++++++++@+++++++++++++++++++++++%%$",
"*%%%%%%%%%%%%%%%%%%%%%%%%%%%%%%%%%%%%%%%%%%%%%%%%%$",
"*%%%%%%%%%%%%%%%%%%%%%%%%%%%%%%%%%%%%%%%%%%%%%%%%%$",
"*%%%%%%%%%%%%%%%%%%%%%%%%%%%%%%%%%%%%%%%%%%%%%%%%%$",
"*%%%%%%%%%%%%%%%%%%%%%%%%%%%%%%%%%%%%%%%%%%%%%%%%%$",
"*&&&&&&&&&&&&&&&&&&&&&&&&&&&&&&&&&&&&&&&&&&&&&&&&&$"
};
